<svg xmlns="http://www.w3.org/2000/svg" xmlns:xlink="http://www.w3.org/1999/xlink" width="1080" zoomAndPan="magnify" viewBox="0 0 810 809.999993" height="1080" preserveAspectRatio="xMidYMid meet" version="1.0"><defs><clipPath id="b9cd83cd78"><path d="M 18.78125 18.78125 L 791.21875 18.78125 L 791.21875 791.21875 L 18.78125 791.21875 Z M 18.78125 18.78125 " clip-rule="nonzero"/></clipPath><clipPath id="b0a0846fc8"><path d="M 405 18.78125 C 191.695312 18.78125 18.78125 191.695312 18.78125 405 C 18.78125 618.304688 191.695312 791.21875 405 791.21875 C 618.304688 791.21875 791.21875 618.304688 791.21875 405 C 791.21875 191.695312 618.304688 18.78125 405 18.78125 Z M 405 18.78125 " clip-rule="nonzero"/></clipPath><clipPath id="e36c87b67d"><path d="M 384 185.460938 L 426 185.460938 L 426 281 L 384 281 Z M 384 185.460938 " clip-rule="nonzero"/></clipPath><clipPath id="225453708e"><path d="M 529 384 L 624.210938 384 L 624.210938 426 L 529 426 Z M 529 384 " clip-rule="nonzero"/></clipPath><clipPath id="c51f37875d"><path d="M 384 529 L 426 529 L 426 624.210938 L 384 624.210938 Z M 384 529 " clip-rule="nonzero"/></clipPath><clipPath id="e13c3529eb"><path d="M 185.460938 384 L 281 384 L 281 426 L 185.460938 426 Z M 185.460938 384 " clip-rule="nonzero"/></clipPath></defs><g clip-path="url(#b9cd83cd78)"><g clip-path="url(#b0a0846fc8)"><path fill="#cd9055" d="M 18.78125 18.78125 L 791.21875 18.78125 L 791.21875 791.21875 L 18.78125 791.21875 Z M 18.78125 18.78125 " fill-opacity="1" fill-rule="nonzero"/></g></g><path fill="#000000" d="M 510.21875 404.835938 C 510.21875 406.558594 510.175781 408.28125 510.089844 410.003906 C 510.003906 411.726562 509.878906 413.445312 509.710938 415.164062 C 509.539062 416.878906 509.328125 418.589844 509.078125 420.296875 C 508.824219 422.003906 508.527344 423.703125 508.191406 425.394531 C 507.855469 427.085938 507.476562 428.765625 507.058594 430.441406 C 506.640625 432.113281 506.179688 433.773438 505.679688 435.425781 C 505.179688 437.074219 504.636719 438.710938 504.058594 440.335938 C 503.476562 441.960938 502.855469 443.570312 502.195312 445.164062 C 501.535156 446.753906 500.835938 448.332031 500.097656 449.890625 C 499.363281 451.449219 498.585938 452.992188 497.773438 454.511719 C 496.960938 456.03125 496.109375 457.53125 495.222656 459.011719 C 494.335938 460.492188 493.414062 461.949219 492.457031 463.382812 C 491.5 464.816406 490.503906 466.226562 489.476562 467.609375 C 488.449219 468.996094 487.390625 470.355469 486.296875 471.6875 C 485.203125 473.019531 484.074219 474.328125 482.917969 475.605469 C 481.757812 476.882812 480.570312 478.132812 479.351562 479.351562 C 478.132812 480.570312 476.882812 481.757812 475.605469 482.917969 C 474.328125 484.074219 473.023438 485.203125 471.6875 486.296875 C 470.355469 487.390625 468.996094 488.449219 467.609375 489.476562 C 466.226562 490.503906 464.816406 491.5 463.382812 492.457031 C 461.949219 493.414062 460.492188 494.335938 459.011719 495.222656 C 457.53125 496.109375 456.03125 496.960938 454.511719 497.773438 C 452.992188 498.585938 451.449219 499.363281 449.890625 500.097656 C 448.332031 500.835938 446.753906 501.535156 445.164062 502.195312 C 443.570312 502.855469 441.960938 503.476562 440.335938 504.058594 C 438.710938 504.636719 437.074219 505.179688 435.425781 505.679688 C 433.773438 506.179688 432.113281 506.640625 430.441406 507.058594 C 428.765625 507.476562 427.085938 507.855469 425.394531 508.191406 C 423.703125 508.527344 422.003906 508.824219 420.296875 509.078125 C 418.589844 509.328125 416.878906 509.539062 415.164062 509.710938 C 413.445312 509.878906 411.726562 510.003906 410.003906 510.089844 C 408.28125 510.175781 406.558594 510.21875 404.835938 510.21875 C 403.109375 510.21875 401.386719 510.175781 399.664062 510.089844 C 397.941406 510.003906 396.222656 509.878906 394.503906 509.710938 C 392.789062 509.539062 391.078125 509.328125 389.371094 509.078125 C 387.664062 508.824219 385.964844 508.527344 384.273438 508.191406 C 382.582031 507.855469 380.902344 507.476562 379.226562 507.058594 C 377.554688 506.640625 375.894531 506.179688 374.242188 505.679688 C 372.59375 505.179688 370.957031 504.636719 369.332031 504.058594 C 367.707031 503.476562 366.097656 502.855469 364.507812 502.195312 C 362.914062 501.535156 361.335938 500.835938 359.777344 500.097656 C 358.21875 499.363281 356.679688 498.585938 355.15625 497.773438 C 353.636719 496.960938 352.136719 496.109375 350.65625 495.222656 C 349.175781 494.335938 347.71875 493.414062 346.285156 492.457031 C 344.851562 491.5 343.441406 490.503906 342.058594 489.476562 C 340.671875 488.449219 339.3125 487.390625 337.980469 486.296875 C 336.648438 485.203125 335.339844 484.074219 334.0625 482.917969 C 332.785156 481.757812 331.535156 480.570312 330.316406 479.351562 C 329.097656 478.132812 327.910156 476.882812 326.75 475.605469 C 325.59375 474.328125 324.464844 473.019531 323.371094 471.6875 C 322.277344 470.355469 321.21875 468.996094 320.191406 467.609375 C 319.164062 466.226562 318.167969 464.816406 317.210938 463.382812 C 316.253906 461.949219 315.332031 460.492188 314.445312 459.011719 C 313.558594 457.53125 312.707031 456.03125 311.894531 454.511719 C 311.082031 452.992188 310.308594 451.449219 309.570312 449.890625 C 308.832031 448.332031 308.132812 446.753906 307.472656 445.164062 C 306.8125 443.570312 306.191406 441.960938 305.613281 440.335938 C 305.03125 438.710938 304.488281 437.074219 303.988281 435.425781 C 303.488281 433.773438 303.027344 432.113281 302.609375 430.441406 C 302.191406 428.765625 301.8125 427.085938 301.476562 425.394531 C 301.140625 423.703125 300.84375 422.003906 300.59375 420.296875 C 300.339844 418.589844 300.128906 416.878906 299.957031 415.164062 C 299.789062 413.445312 299.664062 411.726562 299.578125 410.003906 C 299.492188 408.28125 299.453125 406.558594 299.453125 404.835938 C 299.453125 403.109375 299.492188 401.386719 299.578125 399.664062 C 299.664062 397.941406 299.789062 396.222656 299.957031 394.503906 C 300.128906 392.789062 300.339844 391.078125 300.59375 389.371094 C 300.84375 387.664062 301.140625 385.964844 301.476562 384.273438 C 301.8125 382.582031 302.191406 380.902344 302.609375 379.226562 C 303.027344 377.554688 303.488281 375.894531 303.988281 374.242188 C 304.488281 372.59375 305.03125 370.957031 305.613281 369.332031 C 306.191406 367.707031 306.8125 366.097656 307.472656 364.507812 C 308.132812 362.914062 308.832031 361.335938 309.570312 359.777344 C 310.308594 358.21875 311.082031 356.679688 311.894531 355.15625 C 312.707031 353.636719 313.558594 352.136719 314.445312 350.65625 C 315.332031 349.175781 316.253906 347.71875 317.210938 346.285156 C 318.167969 344.851562 319.164062 343.441406 320.191406 342.058594 C 321.21875 340.671875 322.277344 339.3125 323.371094 337.980469 C 324.464844 336.648438 325.59375 335.339844 326.75 334.0625 C 327.910156 332.785156 329.097656 331.535156 330.316406 330.316406 C 331.535156 329.097656 332.785156 327.910156 334.0625 326.75 C 335.339844 325.59375 336.648438 324.464844 337.980469 323.371094 C 339.3125 322.277344 340.671875 321.21875 342.058594 320.191406 C 343.441406 319.164062 344.851562 318.167969 346.285156 317.210938 C 347.71875 316.253906 349.175781 315.332031 350.65625 314.445312 C 352.136719 313.558594 353.636719 312.707031 355.15625 311.894531 C 356.679688 311.082031 358.21875 310.308594 359.777344 309.570312 C 361.335938 308.832031 362.914062 308.132812 364.507812 307.472656 C 366.097656 306.8125 367.707031 306.191406 369.332031 305.613281 C 370.957031 305.03125 372.59375 304.488281 374.242188 303.988281 C 375.894531 303.488281 377.554688 303.027344 379.226562 302.609375 C 380.902344 302.191406 382.582031 301.8125 384.273438 301.476562 C 385.964844 301.140625 387.664062 300.84375 389.371094 300.59375 C 391.078125 300.339844 392.789062 300.128906 394.503906 299.957031 C 396.222656 299.789062 397.941406 299.664062 399.664062 299.578125 C 401.386719 299.492188 403.109375 299.453125 404.835938 299.453125 C 406.558594 299.453125 408.28125 299.492188 410.003906 299.578125 C 411.726562 299.664062 413.445312 299.789062 415.164062 299.957031 C 416.878906 300.128906 418.589844 300.339844 420.296875 300.59375 C 422.003906 300.84375 423.703125 301.140625 425.394531 301.476562 C 427.085938 301.8125 428.765625 302.191406 430.441406 302.609375 C 432.113281 303.027344 433.773438 303.488281 435.425781 303.988281 C 437.074219 304.488281 438.710938 305.03125 440.335938 305.613281 C 441.960938 306.191406 443.570312 306.8125 445.164062 307.472656 C 446.753906 308.132812 448.332031 308.832031 449.890625 309.570312 C 451.449219 310.308594 452.992188 311.082031 454.511719 311.894531 C 456.03125 312.707031 457.53125 313.558594 459.011719 314.445312 C 460.492188 315.332031 461.949219 316.253906 463.382812 317.210938 C 464.816406 318.167969 466.226562 319.164062 467.609375 320.191406 C 468.996094 321.21875 470.355469 322.277344 471.6875 323.371094 C 473.023438 324.464844 474.328125 325.59375 475.605469 326.75 C 476.882812 327.910156 478.132812 329.097656 479.351562 330.316406 C 480.570312 331.535156 481.757812 332.785156 482.917969 334.0625 C 484.074219 335.339844 485.203125 336.648438 486.296875 337.980469 C 487.390625 339.3125 488.449219 340.671875 489.476562 342.058594 C 490.503906 343.441406 491.5 344.851562 492.457031 346.285156 C 493.414062 347.71875 494.335938 349.175781 495.222656 350.65625 C 496.109375 352.136719 496.960938 353.636719 497.773438 355.15625 C 498.585938 356.679688 499.363281 358.21875 500.097656 359.777344 C 500.835938 361.335938 501.535156 362.914062 502.195312 364.507812 C 502.855469 366.097656 503.476562 367.707031 504.058594 369.332031 C 504.636719 370.957031 505.179688 372.59375 505.679688 374.242188 C 506.179688 375.894531 506.640625 377.554688 507.058594 379.226562 C 507.476562 380.902344 507.855469 382.582031 508.191406 384.273438 C 508.527344 385.964844 508.824219 387.664062 509.078125 389.371094 C 509.328125 391.078125 509.539062 392.789062 509.710938 394.503906 C 509.878906 396.222656 510.003906 397.941406 510.089844 399.664062 C 510.175781 401.386719 510.21875 403.109375 510.21875 404.835938 Z M 510.21875 404.835938 " fill-opacity="1" fill-rule="nonzero"/><g clip-path="url(#e36c87b67d)"><path fill="#000000" d="M 404.835938 280.246094 C 416.257812 280.246094 425.53125 270.972656 425.53125 259.550781 L 425.53125 206.15625 C 425.53125 194.730469 416.257812 185.460938 404.835938 185.460938 C 393.410156 185.460938 384.136719 194.730469 384.136719 206.15625 L 384.136719 259.550781 C 384.136719 270.972656 393.410156 280.246094 404.835938 280.246094 Z M 404.835938 280.246094 " fill-opacity="1" fill-rule="nonzero"/></g><path fill="#000000" d="M 507.566406 322.796875 C 512.867188 322.796875 518.164062 320.808594 522.21875 316.753906 L 559.96875 279.003906 C 568.082031 270.890625 568.082031 257.8125 559.96875 249.699219 C 551.855469 241.585938 538.777344 241.585938 530.664062 249.699219 L 492.914062 287.449219 C 484.800781 295.5625 484.800781 308.640625 492.914062 316.753906 C 496.972656 320.808594 502.269531 322.796875 507.566406 322.796875 Z M 507.566406 322.796875 " fill-opacity="1" fill-rule="nonzero"/><path fill="#000000" d="M 522.21875 492.914062 C 514.109375 484.800781 501.027344 484.800781 492.914062 492.914062 C 484.800781 501.027344 484.800781 514.109375 492.914062 522.21875 L 530.664062 559.96875 C 534.722656 564.027344 540.019531 566.011719 545.316406 566.011719 C 550.613281 566.011719 555.914062 564.027344 559.96875 559.96875 C 568.082031 551.855469 568.082031 538.777344 559.96875 530.664062 Z M 522.21875 492.914062 " fill-opacity="1" fill-rule="nonzero"/><path fill="#000000" d="M 287.449219 492.914062 L 249.699219 530.664062 C 241.585938 538.777344 241.585938 551.855469 249.699219 559.96875 C 253.753906 564.027344 259.054688 566.011719 264.351562 566.011719 C 269.648438 566.011719 274.949219 564.027344 279.003906 559.96875 L 316.753906 522.21875 C 324.867188 514.109375 324.867188 501.027344 316.753906 492.914062 C 308.640625 484.800781 295.5625 484.886719 287.449219 492.914062 Z M 287.449219 492.914062 " fill-opacity="1" fill-rule="nonzero"/><path fill="#000000" d="M 287.449219 316.753906 C 291.503906 320.808594 296.800781 322.796875 302.101562 322.796875 C 307.398438 322.796875 312.695312 320.808594 316.753906 316.753906 C 324.867188 308.640625 324.867188 295.5625 316.753906 287.449219 L 279.003906 249.699219 C 270.890625 241.585938 257.8125 241.585938 249.699219 249.699219 C 241.585938 257.8125 241.585938 270.890625 249.699219 279.003906 Z M 287.449219 316.753906 " fill-opacity="1" fill-rule="nonzero"/><g clip-path="url(#225453708e)"><path fill="#000000" d="M 603.511719 384.136719 L 550.117188 384.136719 C 538.695312 384.136719 529.421875 393.410156 529.421875 404.835938 C 529.421875 416.257812 538.695312 425.53125 550.117188 425.53125 L 603.511719 425.53125 C 614.9375 425.53125 624.210938 416.257812 624.210938 404.835938 C 624.210938 393.410156 614.9375 384.136719 603.511719 384.136719 Z M 603.511719 384.136719 " fill-opacity="1" fill-rule="nonzero"/></g><g clip-path="url(#c51f37875d)"><path fill="#000000" d="M 404.835938 529.421875 C 393.410156 529.421875 384.136719 538.695312 384.136719 550.117188 L 384.136719 603.511719 C 384.136719 614.9375 393.410156 624.210938 404.835938 624.210938 C 416.257812 624.210938 425.53125 614.9375 425.53125 603.511719 L 425.53125 550.117188 C 425.53125 538.695312 416.257812 529.421875 404.835938 529.421875 Z M 404.835938 529.421875 " fill-opacity="1" fill-rule="nonzero"/></g><g clip-path="url(#e13c3529eb)"><path fill="#000000" d="M 280.246094 404.835938 C 280.246094 393.410156 270.972656 384.136719 259.550781 384.136719 L 206.15625 384.136719 C 194.730469 384.136719 185.460938 393.410156 185.460938 404.835938 C 185.460938 416.257812 194.730469 425.53125 206.15625 425.53125 L 259.550781 425.53125 C 270.972656 425.53125 280.246094 416.257812 280.246094 404.835938 Z M 280.246094 404.835938 " fill-opacity="1" fill-rule="nonzero"/></g></svg>