<svg xmlns="http://www.w3.org/2000/svg" xmlns:xlink="http://www.w3.org/1999/xlink" width="1080" zoomAndPan="magnify" viewBox="0 0 810 809.999993" height="1080" preserveAspectRatio="xMidYMid meet" version="1.0"><defs><clipPath id="732cddfd44"><path d="M 18.78125 18.78125 L 791.21875 18.78125 L 791.21875 791.21875 L 18.78125 791.21875 Z M 18.78125 18.78125 " clip-rule="nonzero"/></clipPath><clipPath id="0d3631758c"><path d="M 405 18.78125 C 191.695312 18.78125 18.78125 191.695312 18.78125 405 C 18.78125 618.304688 191.695312 791.21875 405 791.21875 C 618.304688 791.21875 791.21875 618.304688 791.21875 405 C 791.21875 191.695312 618.304688 18.78125 405 18.78125 Z M 405 18.78125 " clip-rule="nonzero"/></clipPath><clipPath id="79b0296705"><path d="M 384 185.460938 L 426 185.460938 L 426 281 L 384 281 Z M 384 185.460938 " clip-rule="nonzero"/></clipPath><clipPath id="158f8558e4"><path d="M 529 384 L 624.210938 384 L 624.210938 426 L 529 426 Z M 529 384 " clip-rule="nonzero"/></clipPath><clipPath id="0883810c38"><path d="M 384 529 L 426 529 L 426 624.210938 L 384 624.210938 Z M 384 529 " clip-rule="nonzero"/></clipPath><clipPath id="61e9907d73"><path d="M 185.460938 384 L 281 384 L 281 426 L 185.460938 426 Z M 185.460938 384 " clip-rule="nonzero"/></clipPath></defs><g clip-path="url(#732cddfd44)"><g clip-path="url(#0d3631758c)"><path fill="#000000" d="M 18.78125 18.78125 L 791.21875 18.78125 L 791.21875 791.21875 L 18.78125 791.21875 Z M 18.78125 18.78125 " fill-opacity="1" fill-rule="nonzero"/></g></g><path fill="#cd9055" d="M 510.460938 405 C 510.460938 406.722656 510.417969 408.449219 510.332031 410.171875 C 510.25 411.898438 510.121094 413.617188 509.953125 415.335938 C 509.78125 417.054688 509.570312 418.765625 509.320312 420.472656 C 509.066406 422.179688 508.769531 423.878906 508.433594 425.574219 C 508.097656 427.265625 507.71875 428.949219 507.300781 430.625 C 506.878906 432.296875 506.417969 433.960938 505.917969 435.613281 C 505.417969 437.265625 504.875 438.902344 504.296875 440.527344 C 503.714844 442.152344 503.09375 443.761719 502.433594 445.355469 C 501.773438 446.953125 501.074219 448.527344 500.335938 450.089844 C 499.597656 451.648438 498.820312 453.191406 498.007812 454.710938 C 497.195312 456.234375 496.34375 457.734375 495.457031 459.214844 C 494.570312 460.695312 493.644531 462.15625 492.6875 463.589844 C 491.726562 465.023438 490.734375 466.433594 489.707031 467.820312 C 488.675781 469.207031 487.617188 470.566406 486.519531 471.902344 C 485.425781 473.238281 484.300781 474.542969 483.140625 475.820312 C 481.980469 477.101562 480.792969 478.351562 479.570312 479.570312 C 478.351562 480.792969 477.101562 481.980469 475.820312 483.140625 C 474.542969 484.300781 473.238281 485.425781 471.902344 486.519531 C 470.566406 487.617188 469.207031 488.675781 467.820312 489.707031 C 466.433594 490.734375 465.023438 491.726562 463.589844 492.6875 C 462.15625 493.644531 460.695312 494.566406 459.214844 495.457031 C 457.734375 496.34375 456.234375 497.195312 454.710938 498.007812 C 453.191406 498.820312 451.648438 499.597656 450.089844 500.335938 C 448.527344 501.074219 446.953125 501.773438 445.355469 502.433594 C 443.761719 503.09375 442.152344 503.714844 440.527344 504.296875 C 438.902344 504.875 437.265625 505.417969 435.613281 505.917969 C 433.960938 506.417969 432.296875 506.878906 430.625 507.300781 C 428.949219 507.71875 427.265625 508.097656 425.574219 508.433594 C 423.878906 508.769531 422.179688 509.066406 420.472656 509.320312 C 418.765625 509.570312 417.054688 509.78125 415.335938 509.953125 C 413.617188 510.121094 411.898438 510.25 410.171875 510.332031 C 408.449219 510.417969 406.722656 510.460938 405 510.460938 C 403.273438 510.460938 401.546875 510.417969 399.824219 510.332031 C 398.101562 510.25 396.378906 510.121094 394.660156 509.953125 C 392.945312 509.78125 391.230469 509.570312 389.523438 509.320312 C 387.816406 509.066406 386.117188 508.769531 384.421875 508.433594 C 382.730469 508.097656 381.046875 507.71875 379.375 507.300781 C 377.699219 506.878906 376.035156 506.417969 374.382812 505.917969 C 372.734375 505.417969 371.09375 504.875 369.46875 504.296875 C 367.84375 503.714844 366.234375 503.09375 364.640625 502.433594 C 363.046875 501.773438 361.46875 501.074219 359.90625 500.335938 C 358.347656 499.597656 356.804688 498.820312 355.285156 498.007812 C 353.761719 497.195312 352.261719 496.34375 350.78125 495.457031 C 349.300781 494.566406 347.84375 493.644531 346.40625 492.6875 C 344.972656 491.726562 343.5625 490.734375 342.175781 489.707031 C 340.789062 488.675781 339.429688 487.617188 338.09375 486.519531 C 336.761719 485.425781 335.453125 484.300781 334.175781 483.140625 C 332.894531 481.980469 331.644531 480.792969 330.425781 479.570312 C 329.207031 478.351562 328.015625 477.101562 326.855469 475.820312 C 325.699219 474.542969 324.570312 473.238281 323.476562 471.902344 C 322.378906 470.566406 321.320312 469.207031 320.289062 467.820312 C 319.261719 466.433594 318.269531 465.023438 317.308594 463.589844 C 316.351562 462.15625 315.429688 460.695312 314.539062 459.214844 C 313.652344 457.734375 312.804688 456.234375 311.988281 454.710938 C 311.175781 453.191406 310.398438 451.648438 309.664062 450.089844 C 308.925781 448.527344 308.226562 446.953125 307.566406 445.355469 C 306.902344 443.761719 306.28125 442.152344 305.703125 440.527344 C 305.121094 438.902344 304.578125 437.265625 304.078125 435.613281 C 303.578125 433.960938 303.117188 432.296875 302.695312 430.625 C 302.277344 428.949219 301.898438 427.265625 301.5625 425.574219 C 301.226562 423.878906 300.929688 422.179688 300.679688 420.472656 C 300.425781 418.765625 300.214844 417.054688 300.042969 415.335938 C 299.875 413.617188 299.75 411.898438 299.664062 410.171875 C 299.578125 408.449219 299.535156 406.722656 299.535156 405 C 299.535156 403.273438 299.578125 401.546875 299.664062 399.824219 C 299.75 398.101562 299.875 396.378906 300.042969 394.660156 C 300.214844 392.945312 300.425781 391.230469 300.679688 389.523438 C 300.929688 387.816406 301.226562 386.117188 301.5625 384.421875 C 301.898438 382.730469 302.277344 381.046875 302.695312 379.375 C 303.117188 377.699219 303.578125 376.035156 304.078125 374.382812 C 304.578125 372.734375 305.121094 371.09375 305.703125 369.46875 C 306.28125 367.84375 306.902344 366.234375 307.566406 364.640625 C 308.226562 363.046875 308.925781 361.46875 309.660156 359.90625 C 310.398438 358.347656 311.175781 356.804688 311.988281 355.285156 C 312.804688 353.761719 313.652344 352.261719 314.539062 350.78125 C 315.429688 349.300781 316.351562 347.84375 317.308594 346.40625 C 318.269531 344.972656 319.261719 343.5625 320.289062 342.175781 C 321.320312 340.789062 322.378906 339.429688 323.476562 338.09375 C 324.570312 336.761719 325.699219 335.453125 326.855469 334.175781 C 328.015625 332.894531 329.207031 331.644531 330.425781 330.425781 C 331.644531 329.207031 332.894531 328.015625 334.175781 326.855469 C 335.453125 325.699219 336.761719 324.570312 338.09375 323.476562 C 339.429688 322.378906 340.789062 321.320312 342.175781 320.289062 C 343.5625 319.261719 344.972656 318.269531 346.40625 317.308594 C 347.84375 316.351562 349.300781 315.429688 350.78125 314.539062 C 352.261719 313.652344 353.761719 312.804688 355.285156 311.988281 C 356.804688 311.175781 358.347656 310.398438 359.90625 309.660156 C 361.46875 308.925781 363.046875 308.226562 364.640625 307.5625 C 366.234375 306.902344 367.84375 306.28125 369.46875 305.703125 C 371.09375 305.121094 372.734375 304.578125 374.382812 304.078125 C 376.035156 303.578125 377.699219 303.117188 379.375 302.695312 C 381.046875 302.277344 382.730469 301.898438 384.421875 301.5625 C 386.117188 301.226562 387.816406 300.929688 389.523438 300.679688 C 391.230469 300.425781 392.945312 300.214844 394.660156 300.042969 C 396.378906 299.875 398.101562 299.75 399.824219 299.664062 C 401.546875 299.578125 403.273438 299.535156 405 299.535156 C 406.722656 299.535156 408.449219 299.578125 410.171875 299.664062 C 411.898438 299.75 413.617188 299.875 415.335938 300.042969 C 417.054688 300.214844 418.765625 300.425781 420.472656 300.679688 C 422.179688 300.929688 423.878906 301.226562 425.574219 301.5625 C 427.265625 301.898438 428.949219 302.277344 430.625 302.695312 C 432.296875 303.117188 433.960938 303.578125 435.613281 304.078125 C 437.265625 304.578125 438.902344 305.121094 440.527344 305.703125 C 442.152344 306.28125 443.761719 306.902344 445.355469 307.5625 C 446.953125 308.226562 448.527344 308.925781 450.089844 309.660156 C 451.648438 310.398438 453.191406 311.175781 454.710938 311.988281 C 456.234375 312.804688 457.734375 313.652344 459.214844 314.539062 C 460.695312 315.429688 462.15625 316.351562 463.589844 317.308594 C 465.023438 318.269531 466.433594 319.261719 467.820312 320.289062 C 469.207031 321.320312 470.566406 322.378906 471.902344 323.476562 C 473.238281 324.570312 474.542969 325.699219 475.820312 326.855469 C 477.101562 328.015625 478.351562 329.207031 479.570312 330.425781 C 480.792969 331.644531 481.980469 332.894531 483.140625 334.175781 C 484.300781 335.453125 485.425781 336.761719 486.519531 338.09375 C 487.617188 339.429688 488.675781 340.789062 489.707031 342.175781 C 490.734375 343.5625 491.726562 344.972656 492.6875 346.40625 C 493.644531 347.84375 494.570312 349.300781 495.457031 350.78125 C 496.34375 352.261719 497.195312 353.761719 498.007812 355.285156 C 498.820312 356.804688 499.597656 358.347656 500.335938 359.90625 C 501.074219 361.46875 501.773438 363.046875 502.433594 364.640625 C 503.09375 366.234375 503.714844 367.84375 504.296875 369.46875 C 504.875 371.09375 505.417969 372.734375 505.917969 374.382812 C 506.417969 376.035156 506.878906 377.699219 507.300781 379.375 C 507.71875 381.046875 508.097656 382.730469 508.433594 384.421875 C 508.769531 386.117188 509.066406 387.816406 509.320312 389.523438 C 509.570312 391.230469 509.78125 392.945312 509.953125 394.660156 C 510.121094 396.378906 510.25 398.101562 510.332031 399.824219 C 510.417969 401.546875 510.460938 403.273438 510.460938 405 Z M 510.460938 405 " fill-opacity="1" fill-rule="nonzero"/><g clip-path="url(#79b0296705)"><path fill="#cd9055" d="M 405 280.316406 C 416.429688 280.316406 425.710938 271.039062 425.710938 259.605469 L 425.710938 206.171875 C 425.710938 194.738281 416.429688 185.460938 405 185.460938 C 393.566406 185.460938 384.285156 194.738281 384.285156 206.171875 L 384.285156 259.605469 C 384.285156 271.039062 393.566406 280.316406 405 280.316406 Z M 405 280.316406 " fill-opacity="1" fill-rule="nonzero"/></g><path fill="#cd9055" d="M 507.808594 322.898438 C 513.109375 322.898438 518.414062 320.910156 522.472656 316.851562 L 560.25 279.074219 C 568.367188 270.957031 568.367188 257.867188 560.25 249.746094 C 552.132812 241.628906 539.042969 241.628906 530.921875 249.746094 L 493.144531 287.523438 C 485.027344 295.644531 485.027344 308.734375 493.144531 316.851562 C 497.203125 320.910156 502.507812 322.898438 507.808594 322.898438 Z M 507.808594 322.898438 " fill-opacity="1" fill-rule="nonzero"/><path fill="#cd9055" d="M 522.472656 493.144531 C 514.355469 485.027344 501.265625 485.027344 493.144531 493.144531 C 485.027344 501.265625 485.027344 514.355469 493.144531 522.472656 L 530.921875 560.25 C 534.980469 564.308594 540.285156 566.296875 545.585938 566.296875 C 550.886719 566.296875 556.191406 564.308594 560.25 560.25 C 568.367188 552.132812 568.367188 539.042969 560.25 530.921875 Z M 522.472656 493.144531 " fill-opacity="1" fill-rule="nonzero"/><path fill="#cd9055" d="M 287.523438 493.144531 L 249.746094 530.921875 C 241.628906 539.042969 241.628906 552.132812 249.746094 560.25 C 253.804688 564.308594 259.109375 566.296875 264.410156 566.296875 C 269.710938 566.296875 275.015625 564.308594 279.074219 560.25 L 316.851562 522.472656 C 324.96875 514.355469 324.96875 501.265625 316.851562 493.144531 C 308.734375 485.027344 295.644531 485.109375 287.523438 493.144531 Z M 287.523438 493.144531 " fill-opacity="1" fill-rule="nonzero"/><path fill="#cd9055" d="M 287.523438 316.851562 C 291.582031 320.910156 296.886719 322.898438 302.1875 322.898438 C 307.488281 322.898438 312.792969 320.910156 316.851562 316.851562 C 324.96875 308.734375 324.96875 295.644531 316.851562 287.523438 L 279.074219 249.746094 C 270.957031 241.628906 257.867188 241.628906 249.746094 249.746094 C 241.628906 257.867188 241.628906 270.957031 249.746094 279.074219 Z M 287.523438 316.851562 " fill-opacity="1" fill-rule="nonzero"/><g clip-path="url(#158f8558e4)"><path fill="#cd9055" d="M 603.824219 384.285156 L 550.390625 384.285156 C 538.957031 384.285156 529.679688 393.566406 529.679688 405 C 529.679688 416.429688 538.957031 425.710938 550.390625 425.710938 L 603.824219 425.710938 C 615.257812 425.710938 624.539062 416.429688 624.539062 405 C 624.539062 393.566406 615.257812 384.285156 603.824219 384.285156 Z M 603.824219 384.285156 " fill-opacity="1" fill-rule="nonzero"/></g><g clip-path="url(#0883810c38)"><path fill="#cd9055" d="M 405 529.679688 C 393.566406 529.679688 384.285156 538.957031 384.285156 550.390625 L 384.285156 603.824219 C 384.285156 615.257812 393.566406 624.539062 405 624.539062 C 416.429688 624.539062 425.710938 615.257812 425.710938 603.824219 L 425.710938 550.390625 C 425.710938 538.957031 416.429688 529.679688 405 529.679688 Z M 405 529.679688 " fill-opacity="1" fill-rule="nonzero"/></g><g clip-path="url(#61e9907d73)"><path fill="#cd9055" d="M 280.316406 405 C 280.316406 393.566406 271.039062 384.285156 259.605469 384.285156 L 206.171875 384.285156 C 194.738281 384.285156 185.460938 393.566406 185.460938 405 C 185.460938 416.429688 194.738281 425.710938 206.171875 425.710938 L 259.605469 425.710938 C 271.039062 425.710938 280.316406 416.429688 280.316406 405 Z M 280.316406 405 " fill-opacity="1" fill-rule="nonzero"/></g></svg>