<svg xmlns="http://www.w3.org/2000/svg" xmlns:xlink="http://www.w3.org/1999/xlink" width="1080" zoomAndPan="magnify" viewBox="0 0 810 809.999993" height="1080" preserveAspectRatio="xMidYMid meet" version="1.0"><defs><clipPath id="51d6340baf"><path d="M 209.539062 151 L 600.289062 151 L 600.289062 659 L 209.539062 659 Z M 209.539062 151 " clip-rule="nonzero"/></clipPath><clipPath id="33770be01d"><path d="M 16.378906 16.378906 L 793.378906 16.378906 L 793.378906 793.378906 L 16.378906 793.378906 Z M 16.378906 16.378906 " clip-rule="nonzero"/></clipPath><clipPath id="ae465887e3"><path d="M 404.996094 16.378906 C 190.371094 16.378906 16.378906 190.371094 16.378906 404.996094 C 16.378906 619.625 190.371094 793.613281 404.996094 793.613281 C 619.625 793.613281 793.613281 619.625 793.613281 404.996094 C 793.613281 190.371094 619.625 16.378906 404.996094 16.378906 Z M 404.996094 16.378906 " clip-rule="nonzero"/></clipPath></defs><g clip-path="url(#51d6340baf)"><path fill="#cd9055" d="M 406.160156 658.835938 C 402.886719 658.835938 399.621094 657.6875 397.007812 655.386719 L 214.34375 494.644531 C 211.347656 492.003906 209.628906 488.214844 209.628906 484.230469 L 209.628906 350.761719 C 209.628906 345.226562 212.9375 340.21875 218.007812 338.015625 C 223.085938 335.835938 228.988281 336.859375 233.019531 340.65625 L 328.367188 430.332031 L 328.367188 165.035156 C 328.367188 157.367188 334.578125 151.15625 342.238281 151.15625 L 467.101562 151.15625 C 474.765625 151.15625 480.984375 157.359375 480.984375 165.035156 L 480.984375 429.5625 L 577.074219 340.582031 C 581.109375 336.839844 586.972656 335.835938 592.039062 338.042969 C 597.109375 340.242188 600.359375 345.234375 600.359375 350.761719 L 600.359375 484.222656 C 600.359375 488.179688 598.675781 491.945312 595.730469 494.59375 L 415.394531 655.335938 C 412.769531 657.660156 409.460938 658.835938 406.160156 658.835938 Z M 237.382812 477.949219 L 406.09375 626.4375 L 572.613281 478.011719 L 572.613281 382.515625 L 476.527344 471.476562 C 472.472656 475.226562 466.601562 476.226562 461.542969 474.035156 C 456.488281 471.816406 453.25 466.824219 453.25 461.308594 L 453.25 178.910156 L 356.121094 178.910156 L 356.121094 462.40625 C 356.121094 467.941406 352.832031 472.949219 347.761719 475.152344 C 342.667969 477.332031 336.769531 476.300781 332.75 472.511719 L 237.390625 382.835938 L 237.390625 477.949219 Z M 237.382812 477.949219 " fill-opacity="1" fill-rule="nonzero"/></g><g clip-path="url(#33770be01d)"><g clip-path="url(#ae465887e3)"><path stroke-linecap="butt" transform="matrix(0.75, 0, 0, 0.75, 16.3807, 16.380717)" fill="none" stroke-linejoin="miter" d="M 518.153884 -0.00241414 C 231.987203 -0.00241414 -0.00239214 231.987181 -0.00239214 518.153862 C -0.00239214 804.325751 231.987203 1036.310138 518.153884 1036.310138 C 804.325773 1036.310138 1036.31016 804.325751 1036.31016 518.153862 C 1036.31016 231.987181 804.325773 -0.00241414 518.153884 -0.00241414 Z M 518.153884 -0.00241414 " stroke="#cd9055" stroke-width="50" stroke-opacity="1" stroke-miterlimit="4"/></g></g></svg>