<svg xmlns="http://www.w3.org/2000/svg" xmlns:xlink="http://www.w3.org/1999/xlink" width="1080" zoomAndPan="magnify" viewBox="0 0 810 809.999993" height="1080" preserveAspectRatio="xMidYMid meet" version="1.0"><defs><clipPath id="7fcb855af6"><path d="M 209.703125 151 L 600.453125 151 L 600.453125 659 L 209.703125 659 Z M 209.703125 151 " clip-rule="nonzero"/></clipPath><clipPath id="b0c364f25c"><path d="M 16.613281 16.613281 L 793.613281 16.613281 L 793.613281 793.613281 L 16.613281 793.613281 Z M 16.613281 16.613281 " clip-rule="nonzero"/></clipPath><clipPath id="40cd7b781c"><path d="M 404.996094 793.613281 C 619.625 793.613281 793.613281 619.625 793.613281 404.996094 C 793.613281 190.371094 619.625 16.378906 404.996094 16.378906 C 190.371094 16.378906 16.378906 190.371094 16.378906 404.996094 C 16.378906 619.625 190.371094 793.613281 404.996094 793.613281 Z M 404.996094 793.613281 " clip-rule="nonzero"/></clipPath></defs><g clip-path="url(#7fcb855af6)"><path fill="#cd9055" d="M 403.828125 151.15625 C 407.101562 151.15625 410.367188 152.308594 412.980469 154.609375 L 595.644531 315.347656 C 598.640625 317.988281 600.359375 321.78125 600.359375 325.765625 L 600.359375 459.234375 C 600.359375 464.769531 597.050781 469.777344 591.980469 471.976562 C 586.90625 474.160156 581 473.136719 576.972656 469.335938 L 481.621094 379.664062 L 481.621094 644.960938 C 481.621094 652.628906 475.410156 658.835938 467.753906 658.835938 L 342.886719 658.835938 C 335.222656 658.835938 329.003906 652.636719 329.003906 644.960938 L 329.003906 380.433594 L 232.917969 469.414062 C 228.878906 473.152344 223.015625 474.160156 217.949219 471.953125 C 212.878906 469.753906 209.628906 464.761719 209.628906 459.234375 L 209.628906 325.773438 C 209.628906 321.8125 211.3125 318.046875 214.257812 315.398438 L 394.59375 154.660156 C 397.21875 152.332031 400.527344 151.15625 403.828125 151.15625 Z M 572.605469 332.042969 L 403.894531 183.554688 L 237.375 331.984375 L 237.375 427.480469 L 333.460938 338.515625 C 337.515625 334.769531 343.386719 333.769531 348.449219 335.960938 C 353.5 338.179688 356.738281 343.171875 356.738281 348.6875 L 356.738281 631.085938 L 453.867188 631.085938 L 453.867188 347.585938 C 453.867188 342.054688 457.160156 337.042969 462.226562 334.84375 C 467.320312 332.660156 473.21875 333.695312 477.238281 337.484375 L 572.597656 427.15625 L 572.597656 332.042969 Z M 572.605469 332.042969 " fill-opacity="1" fill-rule="nonzero"/></g><g clip-path="url(#b0c364f25c)"><g clip-path="url(#40cd7b781c)"><path stroke-linecap="butt" transform="matrix(-0.75, 0, 0, -0.75, 793.615044, 793.61506)" fill="none" stroke-linejoin="miter" d="M 518.158626 0.00237177 C 231.986736 0.00237177 0.00234977 231.986758 0.00234977 518.158648 C 0.00234977 804.325329 231.986736 1036.314924 518.158626 1036.314924 C 804.325307 1036.314924 1036.314902 804.325329 1036.314902 518.158648 C 1036.314902 231.986758 804.325307 0.00237177 518.158626 0.00237177 Z M 518.158626 0.00237177 " stroke="#cd9055" stroke-width="50" stroke-opacity="1" stroke-miterlimit="4"/></g></g></svg>