<svg xmlns="http://www.w3.org/2000/svg" xmlns:xlink="http://www.w3.org/1999/xlink" width="1080" zoomAndPan="magnify" viewBox="0 0 810 809.999993" height="1080" preserveAspectRatio="xMidYMid meet" version="1.0"><defs><clipPath id="01ee63eba2"><path d="M 26.523438 26.523438 L 783.476562 26.523438 L 783.476562 783.476562 L 26.523438 783.476562 Z M 26.523438 26.523438 " clip-rule="nonzero"/></clipPath><clipPath id="47583555f4"><path d="M 405 26.523438 C 195.972656 26.523438 26.523438 195.972656 26.523438 405 C 26.523438 614.027344 195.972656 783.476562 405 783.476562 C 614.027344 783.476562 783.476562 614.027344 783.476562 405 C 783.476562 195.972656 614.027344 26.523438 405 26.523438 Z M 405 26.523438 " clip-rule="nonzero"/></clipPath><clipPath id="01fe6d6079"><path d="M 247 214.953125 L 569 214.953125 L 569 589 L 247 589 Z M 247 214.953125 " clip-rule="nonzero"/></clipPath></defs><g clip-path="url(#01ee63eba2)"><g clip-path="url(#47583555f4)"><path fill="#000000" d="M 26.523438 26.523438 L 783.476562 26.523438 L 783.476562 783.476562 L 26.523438 783.476562 Z M 26.523438 26.523438 " fill-opacity="1" fill-rule="nonzero"/></g></g><g clip-path="url(#01fe6d6079)"><path fill="#cd9055" d="M 568.808594 482.691406 L 568.808594 214.953125 L 337.578125 251.460938 L 337.578125 503.15625 C 325.136719 500.191406 310.222656 500.609375 295.074219 505.4375 C 262.617188 515.800781 241.863281 541.84375 248.816406 563.578125 C 255.78125 585.34375 287.734375 594.546875 320.222656 584.199219 C 352.679688 573.824219 366.480469 546.222656 366.480469 526.0625 L 366.480469 304.800781 L 539.90625 277.980469 L 539.90625 459.8125 C 527.460938 456.851562 512.546875 457.269531 497.402344 462.097656 C 464.941406 472.457031 444.191406 498.5 451.140625 520.238281 C 458.109375 542 490.0625 551.207031 522.546875 540.859375 C 555.007812 530.46875 568.808594 502.867188 568.808594 482.691406 Z M 568.808594 482.691406 " fill-opacity="1" fill-rule="nonzero"/></g></svg>