<svg xmlns="http://www.w3.org/2000/svg" xmlns:xlink="http://www.w3.org/1999/xlink" width="1080" zoomAndPan="magnify" viewBox="0 0 810 809.999993" height="1080" preserveAspectRatio="xMidYMid meet" version="1.0"><defs><clipPath id="e52cd327c9"><path d="M 26.523438 26.523438 L 783.476562 26.523438 L 783.476562 783.476562 L 26.523438 783.476562 Z M 26.523438 26.523438 " clip-rule="nonzero"/></clipPath><clipPath id="5000ece10d"><path d="M 405 26.523438 C 195.972656 26.523438 26.523438 195.972656 26.523438 405 C 26.523438 614.027344 195.972656 783.476562 405 783.476562 C 614.027344 783.476562 783.476562 614.027344 783.476562 405 C 783.476562 195.972656 614.027344 26.523438 405 26.523438 Z M 405 26.523438 " clip-rule="nonzero"/></clipPath><clipPath id="01d1f151c7"><path d="M 247 214.953125 L 570 214.953125 L 570 589 L 247 589 Z M 247 214.953125 " clip-rule="nonzero"/></clipPath></defs><g clip-path="url(#e52cd327c9)"><g clip-path="url(#5000ece10d)"><path fill="#cd9055" d="M 26.523438 26.523438 L 783.476562 26.523438 L 783.476562 783.476562 L 26.523438 783.476562 Z M 26.523438 26.523438 " fill-opacity="1" fill-rule="nonzero"/></g></g><g clip-path="url(#01d1f151c7)"><path fill="#000000" d="M 569.179688 482.804688 L 569.179688 214.953125 L 337.691406 251.476562 L 337.691406 503.277344 C 325.234375 500.316406 310.300781 500.734375 295.140625 505.5625 C 262.644531 515.929688 241.867188 541.984375 248.828125 563.726562 C 255.800781 585.503906 287.789062 594.710938 320.316406 584.359375 C 352.808594 573.980469 366.625 546.363281 366.625 526.195312 L 366.625 304.839844 L 540.242188 278.007812 L 540.242188 459.917969 C 527.785156 456.953125 512.855469 457.375 497.691406 462.203125 C 465.199219 472.570312 444.421875 498.625 451.378906 520.367188 C 458.355469 542.140625 490.34375 551.351562 522.867188 541 C 555.363281 530.605469 569.179688 502.988281 569.179688 482.804688 Z M 569.179688 482.804688 " fill-opacity="1" fill-rule="nonzero"/></g></svg>